<?xml version="1.0" encoding="utf-8"?>
<!-- Generator: Adobe Illustrator 24.0.3, SVG Export Plug-In . SVG Version: 6.00 Build 0)  -->
<svg version="1.1" id="Ebene_1" xmlns="http://www.w3.org/2000/svg" xmlns:xlink="http://www.w3.org/1999/xlink" x="0px" y="0px"
	 viewBox="0 0 134.65 42.63" style="enable-background:new 0 0 134.65 42.63;" xml:space="preserve">
<style type="text/css">
	.st0{fill:#FFE008;}
	.st1{fill:#222221;}
	.st2{fill:#222221;stroke:#222221;stroke-width:0.216;}
	.st3{fill:#222221;stroke:#222221;stroke-width:0.216;stroke-linejoin:bevel;}
</style>
<rect class="st0" width="35.99" height="35.96"/>
<path class="st1" d="M48.47,28.75c-0.94-0.51-2.15-0.9-2.15-1.87c0-0.86,0.94-1.52,2.38-1.52c1.21,0,2.38,0.39,2.77,0.54v-1.56
	c-0.55-0.16-1.52-0.43-2.77-0.43c-2.65,0-4.05,1.21-4.05,3.12c0,1.95,1.6,2.57,2.69,3.19l1.05,0.59c0.7,0.39,2.14,0.9,2.14,2.1
	c0,1.36-1.25,1.91-2.89,1.91c-1.33,0-2.77-0.51-3.04-0.62v1.56c0.47,0.15,1.68,0.51,3.2,0.51c2.77,0,4.41-1.25,4.41-3.58
	c0-2.03-1.52-2.73-2.77-3.35L48.47,28.75z"/>
<path class="st1" d="M61.14,34.63c-0.39,0.12-0.59,0.2-1.13,0.2c-1.75,0-1.95-1.21-1.95-1.95v-7.25h3.16v-1.44h-3.16v-3.78
	l-1.68,1.05v2.73h-1.95v1.44h1.95v7.56c0,2.11,0.9,3.08,3.28,3.08c0.47,0,0.97-0.08,1.48-0.16V34.63z"/>
<path class="st1" d="M64.5,36h1.68v-4.91c0-3.15,1.33-5.34,4.02-5.34v-1.83c-2.73,0-3.59,1.75-3.94,2.57h-0.08v-2.3H64.5V36z"/>
<path class="st1" d="M73.19,36h1.68v-11.8h-1.68V36L73.19,36z M72.92,21.15h2.22v-2.26h-2.22V21.15z"/>
<path class="st1" d="M87.42,34.59c-0.62,0.23-1.48,0.23-1.91,0.23c-3.9,0-4.68-3.12-4.68-5.38c0-1.79,0.66-4.09,2.81-4.09
	c1.6,0,2.11,1.17,2.11,2.41h1.99c0-1.87-0.86-3.86-4.02-3.86c-3.39,0-4.8,2.38-4.8,5.88c0,4.29,2.3,6.47,6.04,6.47
	c1.09,0,1.72-0.12,2.46-0.35V34.59z"/>
<polygon class="st1" points="91.05,36 92.73,36 92.73,29.68 92.77,29.68 97.37,36 99.43,36 94.68,29.41 98.93,24.19 96.86,24.19 
	92.77,29.18 92.73,29.18 92.73,18.89 91.05,18.89 "/>
<path class="st1" d="M102.32,36H104v-4.87c0-2.1,1.13-5.49,3.35-5.49c1.71,0,1.71,1.79,1.71,3.82V36h1.71v-8.42
	c0-1.95-1.01-3.66-3.04-3.66c-2.61,0-3.35,2.03-3.67,3H104v-8.02h-1.68V36z"/>
<path class="st1" d="M119.44,36.27c3.47-0.04,4.84-2.73,4.84-6.16c0-3.43-1.37-6.16-4.84-6.2v1.44c1.91,0,2.89,1.79,2.89,4.71
	c0,2.96-0.97,4.75-2.89,4.75V36.27z M119.4,36.27h0.04v-1.44h-0.04c-1.91,0-2.85-1.76-2.85-4.75c0-2.92,0.94-4.71,2.85-4.71h0.04
	v-1.44h-0.04c-3.47,0-4.79,2.77-4.79,6.2C114.6,33.54,115.93,36.27,119.4,36.27z"/>
<path class="st1" d="M128.79,36h1.68V25.63h3.39v-1.44h-3.39v-1.29c0-1.56,0.51-2.65,2.5-2.65c0.7,0,1.25,0.15,1.68,0.31v-1.52
	c-0.55-0.12-1.13-0.19-1.99-0.19c-2.96,0-3.86,1.79-3.86,3.7v1.64h-1.99v1.44h1.99V36z"/>
<path class="st2" d="M2.14,37.24l-0.43-0.35c0,0,0.08-0.39-0.04-0.54c-0.12-0.16-0.23-0.58-0.23-0.58L1.4,35.02l0.08-1.17
	l-0.04-0.27c0,0,0.23-1.24,0.23-1.55c0.04-0.31,0.55-2.77,0.62-3.08c0,0,0.7-2.85,1.13-4.29c0.47-1.4,1.72-4.36,2.14-5.22
	c0.39-0.9,0.94-2.14,1.48-3.12c0.59-1.01,3.2-4.95,3.2-4.95h0.16l0.16,0.16l0.59-0.51l-0.39,1.01c0,0-0.16,0.86-0.35,1.25
	c-0.16,0.43-1.56,3.43-1.79,4.01c-0.23,0.62-1.75,3.94-1.99,4.4c-0.19,0.5-1.48,3.78-1.6,4.13c-0.12,0.31-0.74,2.3-0.74,2.3
	S3.82,30,3.78,30.11c-0.08,0.12-0.66,2.53-0.66,2.53l-0.43,1.79l-0.27,1.76l-0.2,0.7L2.14,37.24z"/>
<path class="st3" d="M16.73,12.93l-0.39,0.27c0,0-0.39-0.04-0.43,0c-0.04,0-0.19,0.12-0.39,0.39c-0.16,0.27-0.66,0.9-0.86,1.25
	c-0.19,0.31-0.59,1.09-0.7,1.21c-0.12,0.12-0.31,0.51-0.43,0.74c-0.08,0.19-0.51,0.9-0.62,1.09c-0.12,0.2-0.23,0.39-0.27,0.51
	c-0.04,0.12-0.39,0.94-0.43,1.01c-0.08,0.08-0.55,1.17-0.55,1.25c-0.04,0.12-0.23,0.51-0.27,0.66c-0.04,0.2-0.16,0.47-0.19,0.51
	c-0.04,0.04-0.16,0.35-0.2,0.39c-0.04,0.08-0.2,0.51-0.35,0.66c-0.2,0.15-0.78,1.17-1.01,1.56c-0.27,0.43-0.66,1.13-1.09,1.91
	c-0.39,0.78-1.29,2.61-1.64,3.27c-0.35,0.7-0.51,1.21-0.66,1.52c-0.16,0.35-0.43,1.09-0.51,1.29c-0.08,0.2-0.39,1.13-0.43,1.25
	c0,0.08-0.55,1.87-0.59,2.14c0,0.27-0.19,0.74-0.35,1.6c-0.16,0.86-0.19,1.68-0.23,2.1c-0.04,0.47-0.12,1.17-0.12,1.17
	s0.04-0.47,0.12-0.62c0.08-0.16,0.12-0.16,0.12-0.16l0.04,0.66v0.35l0.08,0.31v0.47l0.12-0.47h0.08l0.04,0.12l0.04,0.08l0.12-0.27
	c0,0,0.16-0.31,0.16-0.43c0-0.08,0.04-0.31,0.04-0.31s0.12-0.31,0.12-0.43c0.04-0.12,0.27-1.29,0.39-1.6
	c0.08-0.31,0.31-1.09,0.35-1.13c0-0.04,0.55-1.56,0.66-1.83c0.08-0.31,0.47-1.37,0.66-1.79c0.2-0.47,0.47-1.05,0.62-1.36
	c0.19-0.31,0.39-0.9,0.55-1.17c0.16-0.23,0.35-0.82,0.47-0.94c0.08-0.12,0.47-0.78,0.47-0.78v0.43c0,0-0.12,0.31-0.12,0.43
	c-0.04,0.16-0.04,0.66-0.04,0.82c0,0.16,0.04,0.35-0.04,0.66c-0.04,0.31-0.08,0.54-0.08,0.54s-0.08,1.17-0.08,1.44
	c0,0.31-0.04,0.82-0.04,1.13c0,0.35,0.04,1.56,0.04,1.56l0.04,0.04c0,0,0,0.78,0,1.01c0,0.23,0.08,1.83,0.08,1.83l0.08,0.9v0.2
	l0.04-0.27v-0.31H9.2l0.04,0.31l0.04,0.58V40.2l0.08-0.12l0.08,0.16c0,0,0.08,0.43,0.08,0.58c0,0.15,0.08,0.58,0.08,0.58l0.04,0.23
	v-0.59v-0.35l0.08,0.08l0.08,0.23v0.31c0,0,0.08,0.51,0.08,0.54c-0.04,0.04,0-1.36,0-1.36s-0.08-0.93-0.04-1.09
	c0-0.16,0.08-0.54,0.08-0.78c0-0.23,0-0.62,0-0.62l0.04-0.04c0,0,0.04-0.66,0.04-0.94c0.04-0.27,0.04-1.25,0.08-1.48
	c0-0.23,0.08-1.13,0.08-1.25c0-0.12,0.04-0.47,0.04-0.58c0.04-0.16,0-0.47,0.08-0.7c0.04-0.19,0.08-0.27,0.08-0.27s0-0.39,0.04-0.54
	c0-0.15,0.04-0.31,0.04-0.31v-0.23c0,0,0.04-0.04,0.08-0.27c0.04-0.19,0.08-0.51,0.08-0.66c0.04-0.16,0.2-0.78,0.23-1.17
	c0.08-0.39,0.08-0.62,0.16-0.78c0.04-0.16,0.12-0.55,0.19-0.78c0.04-0.23,0.04-0.16,0.04-0.16s0.12-0.51,0.19-0.7
	c0.04-0.23,0.43-1.33,0.51-1.56c0.04-0.27,0.12-0.47,0.12-0.47s0.27-0.9,0.39-1.21c0.12-0.31,0.27-0.74,0.58-1.36
	c0.35-0.62,0.82-1.29,1.13-1.87c0.35-0.54,1.25-2.02,1.25-2.02l0.7-1.09l0.08-0.16l0.23-0.43l0.16-0.31l0.04-0.08l0.04-0.16
	l-0.08-0.04l-0.19,0.16c0,0-0.12,0.04-0.31,0.04c-0.16,0.04-0.31,0.04-0.31,0.04s-0.12,0.12-0.23,0.23
	c-0.12,0.12-0.27,0.16-0.27,0.16l-0.12,0.12h-0.04l0.04-0.2c0,0,0-0.12,0.19-0.51c0.19-0.43,0.31-0.7,0.47-1.05
	c0.16-0.31,0.47-1.01,0.47-1.01l0.23-0.62c0,0,0.12-0.27,0.16-0.31c0.04-0.04,0.04-0.08,0.04-0.08l0.04-0.16l0.08-0.16L16.73,12.93z
	"/>
<path class="st2" d="M23.98,9.66l0.08-0.2l0.16-0.31l0.51-0.66l-0.66,0.78c0,0-0.23,0.23-0.31,0.35c-0.12,0.12-0.66,0.82-0.74,0.86
	c-0.08,0.08-0.58,0.78-0.66,0.9c-0.12,0.08-0.55,0.58-0.55,0.58l-0.16,0.16l-0.98,1.32c0,0-1.01,1.32-1.13,1.52
	c-0.16,0.16-0.62,0.9-0.9,1.36c0,0-0.78,1.25-0.86,1.4c-0.08,0.19-0.78,1.48-1.01,1.99c-0.27,0.51-1.01,2.14-1.21,2.69
	c-0.2,0.55-1.01,2.73-1.09,3.04c-0.08,0.31-0.62,1.91-0.82,2.92c0,0-0.39,1.87-0.43,2.06c0,0.2-0.23,2.07-0.23,2.22
	c-0.04,0.16-0.08,0.2-0.08,0.2s0,0.31,0,0.5c-0.04,0.2-0.08,0.94-0.08,1.05c0,0.12-0.04,1.05-0.04,1.25
	c-0.04,0.19,0.08,0.86,0.04,1.13c0,0.23,0.04,0.59,0.04,0.74c0.04,0.16,0.12,0.35,0.12,0.39c0,0.04,0,0.16,0,0.16l0.12-0.12
	l0.08,0.16l0.04,0.12l0.04,0.12l0.08-0.2l0.08-0.04l0.04,0.08h0.08l0.08,0.08v0.08l0.12-0.31l0.04,0.04l0.04-0.16
	c0,0,0.2-0.12,0.23-0.2c0.04-0.08,0.04-0.23,0.04-0.23s0.12-0.12,0.16-0.2c0-0.08,0.23-0.66,0.27-0.89
	c0.04-0.23,0.12-1.44,0.16-1.83c0.08-0.39,0.19-1.52,0.19-1.52s0.23-1.63,0.31-2.1c0.08-0.43,0.39-1.79,0.51-2.34
	c0.12-0.55,1.91-5.77,2.18-6.31c0.27-0.58,1.13-2.49,1.6-3.35c0.47-0.86,0.82-1.56,1.01-1.91c0.19-0.35,0.94-1.64,1.36-2.45
	c0.47-0.78,0.94-1.44,1.21-1.99c0.31-0.51,0.55-1.05,0.78-1.4c0.23-0.35,0.27-0.58,0.58-1.05c0.35-0.47,0.62-0.98,0.78-1.17
	c0.16-0.19,0.23-0.35,0.23-0.43c0-0.08-0.04-0.12-0.04-0.12l-0.12,0.04c0,0-0.12,0.04-0.19,0.12C25,8.65,24.64,9,24.57,9.12
	c-0.08,0.08-0.43,0.47-0.47,0.47C24.06,9.58,23.98,9.66,23.98,9.66z"/>
<path class="st2" d="M20.08,38.14c0,0-0.35-0.04-0.51-0.23c-0.2-0.2-0.27-0.82-0.27-0.82l-0.04-0.12c0,0-0.04-0.23-0.04-0.39
	c-0.04-0.16-0.12-0.59-0.08-1.02c0-0.43,0.04-1.64,0-1.99c0-0.39,0.04-1.52,0.08-2.1c0.04-0.55,0.08-0.97,0.12-1.29
	c0.04-0.31,0-0.58,0.08-1.13c0.08-0.59,0.12-0.9,0.19-1.29c0.04-0.39,0.16-1.01,0.23-1.48c0.04-0.47,0.08-0.86,0.16-1.21
	c0.08-0.31,0.23-1.29,0.35-1.79c0.12-0.51,0.2-1.01,0.27-1.29c0.12-0.27,0.12-0.12,0.16-0.31c0-0.23,0.04-0.31,0.08-0.51
	c0-0.2,0.12-0.39,0.19-0.7c0.08-0.35,0.16-0.7,0.35-1.21c0.16-0.51,0.47-1.48,0.62-1.87c0.19-0.35,0.55-1.25,0.74-1.64
	c0.23-0.35,0.43-0.9,0.55-0.97c0.12-0.08,0.08-0.04,0.19-0.2c0.12-0.15,0.27-0.31,0.35-0.51c0.08-0.19,0.19-0.47,0.35-0.62
	c0.12-0.12,0.27-0.23,0.35-0.23c0.12,0,0.19,0.04,0.19,0.04l-0.16,0.08v0.16c0,0-0.08,0.19-0.12,0.27
	c-0.04,0.08-0.08,0.16-0.08,0.16l-0.04,0.2c0,0,0.04,0.16,0,0.23c-0.04,0.08-0.08,0.27-0.12,0.39c-0.04,0.08-0.08,0.2-0.08,0.2
	l-0.08,0.16c0,0-0.08,0.23-0.16,0.47c-0.04,0.2-0.12,0.43-0.19,0.66c-0.04,0.23-0.08,0.27-0.08,0.35s-0.08,0.2-0.08,0.2
	s-0.08,0.19-0.08,0.31c0,0.16-0.04,0.27-0.08,0.43c-0.04,0.16-0.16,0.43-0.16,0.43s0,0.16,0,0.19c-0.04,0.08-0.08,0.12-0.08,0.12
	v0.16c0,0-0.04,0.12-0.08,0.2c0,0.12,0,0.16,0,0.16l-0.04,0.08c0,0-0.16,0.66-0.23,1.01c-0.12,0.35-0.08,0.39-0.16,0.66
	c-0.04,0.23-0.08,0.66-0.16,0.86c-0.04,0.2-0.08,0.43-0.12,0.74c-0.04,0.31-0.12,0.23-0.12,0.59c0,0.35,0,0.35,0,0.35l-0.04,0.08
	c0,0-0.08,0.43-0.12,0.66c-0.04,0.23-0.08,0.51-0.08,0.7c-0.04,0.23-0.04,0.31-0.04,0.31l-0.08,0.19c0,0,0,0.23-0.04,0.39
	c-0.04,0.2-0.04,0.27-0.04,0.39c0,0.08,0,0.27-0.04,0.27c-0.04,0.04-0.04,0.12-0.04,0.12s-0.04,0.23-0.08,0.43
	c0,0.19-0.04,0.51-0.04,0.78c0,0.27-0.12,1.44-0.16,1.75c0,0.31-0.04,0.86-0.08,1.4c-0.04,0.54-0.16,1.91-0.16,2.18
	c0,0.27-0.12,1.64-0.16,2.07c0,0.39-0.08,0.35-0.08,0.66s0,0.2-0.04,0.58c-0.04,0.39-0.04,0.47-0.04,0.7c0,0.23-0.08,0.55-0.16,0.74
	c-0.08,0.23-0.16,0.35-0.31,0.47C20.35,38.06,20.08,38.14,20.08,38.14z"/>
<path class="st2" d="M34.08,17.49l0.16,0.08c0,0,0,0.08,0,0.2c0,0.16-0.19,0.35-0.19,0.39c-0.04,0.08-0.55,0.55-0.66,0.82
	c-0.16,0.27-1.33,1.99-1.64,2.42c-0.35,0.43-1.33,1.79-1.64,2.22c-0.31,0.43-0.78,1.13-1.13,1.68c-0.35,0.54-1.01,1.6-1.21,1.87
	c-0.19,0.31-0.62,0.94-1.13,1.87c-0.55,0.93-0.7,1.17-0.98,1.67c-0.27,0.54-0.78,1.56-1.05,2.22c-0.31,0.62-0.66,1.68-0.86,2.14
	c-0.16,0.47-0.59,1.71-0.86,2.45c-0.23,0.78-0.27,0.9-0.51,1.64c-0.23,0.7-0.2,0.62-0.27,0.86c-0.04,0.23-0.16,0.43-0.23,0.74
	c-0.08,0.27-0.12,0.23-0.16,0.43c-0.04,0.16-0.12,0.27-0.16,0.43c-0.04,0.16-0.04,0.2-0.08,0.27c-0.04,0.12-0.12,0.35-0.12,0.39
	c0,0.04-0.12,0.16-0.12,0.16l-0.08,0.08c0,0-0.23,0.04-0.31,0c-0.08,0-0.16-0.16-0.2-0.27c0-0.12-0.04-0.12-0.04-0.12
	s-0.04-0.08-0.08-0.16c-0.04-0.08-0.16-0.31-0.16-0.31l0.12-0.74c0,0,0.12-0.74,0.23-1.17c0.08-0.47,0.39-1.95,0.51-2.42
	c0.16-0.43,0.27-1.21,0.43-1.63c0.12-0.39,0.62-2.26,0.86-2.77c0.23-0.51,0.7-1.75,1.05-2.46c0.39-0.74,0.78-1.63,1.72-3.08
	c0.94-1.4,1.17-1.83,1.52-2.34c0,0,0.66-0.97,1.01-1.4c0.35-0.43,0.78-0.97,0.9-1.17c0.16-0.16,0.7-0.74,0.9-0.97
	c0.19-0.23,0.7-0.82,1.09-1.21c0.39-0.39,0.9-0.94,1.17-1.17c0.27-0.27,0.47-0.54,0.82-0.74c0.31-0.23,0.55-0.47,0.55-0.47
	l0.12-0.04c0,0,0,0.04,0.12-0.04c0.12-0.04,0.23-0.08,0.23-0.08s0.08-0.04,0.2-0.12C34.08,17.53,34.08,17.49,34.08,17.49z"/>
<path class="st2" d="M43.6,19.01c0,0-0.39,0.2-0.47,0.23c-0.08,0-0.08-0.12-0.08-0.12l0.23-0.16c0,0-0.94,0.35-1.33,0.55
	c-0.39,0.16-1.21,0.54-1.64,0.74c-0.43,0.19-0.58,0.27-0.94,0.43c-0.39,0.2-1.17,0.62-1.68,0.9c-0.51,0.27-1.29,0.78-1.6,0.97
	c-0.27,0.2-0.94,0.62-1.4,0.94c-0.47,0.35-1.33,0.9-1.68,1.17c-0.35,0.27-1.21,1.05-1.44,1.21c-0.23,0.16-0.27,0.2-0.47,0.35
	c-0.16,0.16-0.58,0.54-0.82,0.78c-0.19,0.23-0.74,0.74-1.09,1.09c-0.35,0.39-0.51,0.51-0.62,0.66c-0.12,0.12-0.43,0.51-0.62,0.78
	c-0.2,0.23-0.51,0.62-0.94,1.17c-0.39,0.58-0.51,0.74-0.82,1.25c-0.27,0.47-0.66,1.17-0.82,1.52c-0.16,0.31-0.16,0.35-0.16,0.35
	v0.08l-0.04,0.08l-0.04,0.08c0,0-0.08,0.12-0.08,0.2c0,0.08,0,0.16,0,0.16s0.12-0.12,0.16-0.2c0.08-0.12,0.2-0.23,0.2-0.23
	l0.19-0.31l0.04-0.04c0,0-0.08,0.35-0.16,0.47c-0.04,0.08-0.12,0.23-0.12,0.23v0.12l-0.04,0.08l-0.08,0.16l-0.04,0.16l0.12-0.16
	v0.12l0.12-0.12v0.27l-0.08,0.16l-0.04,0.08l0.19-0.16l0.16-0.15l0.08-0.04c0,0,0.08-0.12,0.16-0.16c0.04-0.04,0.16-0.12,0.23-0.27
	c0.08-0.12,0.62-0.78,0.82-1.01c0.19-0.23,1.05-1.21,1.4-1.56c0.31-0.31,1.4-1.4,2.07-1.99c0.66-0.58,1.99-1.71,2.57-2.18
	c0.58-0.43,2.61-1.87,3.28-2.3c0.62-0.43,0.39-0.27,0.78-0.51c0.35-0.23,0.74-0.55,1.37-0.98c0.62-0.47,1.01-0.74,1.4-1.01
	c0.35-0.31,0.9-0.74,1.09-0.86c0.19-0.12,1.33-0.93,1.72-1.13c0.35-0.23,0.74-0.51,0.94-0.66c0.16-0.16,0.23-0.31,0.35-0.43
	c0.16-0.08,0.47-0.31,0.7-0.39c0.23-0.08,0.31-0.16,0.31-0.16L45,19.17c0,0,0.04-0.12,0.27-0.23c0.2-0.08,0.31-0.2,0.31-0.2
	s-0.16-0.04-0.23,0c-0.04,0.08-0.31,0.12-0.43,0.2c-0.12,0.08-0.39,0.19-0.55,0.27c-0.2,0.12-0.55,0.27-0.7,0.31
	c-0.12,0.04-0.31,0.08-0.39,0.04c-0.08,0-0.04-0.12-0.04-0.12s0.08,0,0.12-0.04c0.04-0.08,0.12-0.23,0.16-0.23
	c0.08-0.04,0.19-0.12,0.19-0.12L43.6,19.01z"/>
</svg>
