<?xml version="1.0" encoding="UTF-8"?>
<!-- Generator: Adobe Illustrator 22.1.0, SVG Export Plug-In . SVG Version: 6.00 Build 0)  -->
<svg version="1.1" id="neues_logo" xmlns="http://www.w3.org/2000/svg" xmlns:xlink="http://www.w3.org/1999/xlink" x="0px" y="0px" viewBox="0 0 605.1 211.3" style="enable-background:new 0 0 605.1 211.3;" xml:space="preserve">
<style type="text/css">
	.st0{fill:none;stroke:#FFFFFF;stroke-width:4;stroke-miterlimit:44;}
	.st1{fill:#75B726;}
</style>
<g>
	<path class="st0" d="M120.6,160.2c8.2,0,26.8,1.3,26.8,13.1c0,7.9-9.2,14.2-20.8,14.2c-6.4,0-21-1.5-21-16.1   C105.5,164.2,107.9,160.2,120.6,160.2z M127.4,107.5c-7.1,0-11.8-4.9-11.8-19.1c0-14,4.1-19.1,11.8-19.1c7.7,0,11.8,5.2,11.8,19.1   C139.3,102.6,134.1,107.5,127.4,107.5z M188.9,53.9h-41.4c-5.8-1.7-12.2-2.8-20-2.8c-25.1,0-46.6,13.7-46.6,37.4   c0,14.4,9.9,25.6,21.3,29.2c-11,6.2-15.9,10.7-15.9,19.3c0,7.3,3.2,11.4,6.4,13.5c-8.2,3.9-18.3,10.5-18.3,23.2   c0,19.5,19.5,31.1,52.2,31.1c40.2,0,54.5-17.6,54.5-34.1c0-29.8-27.1-30.7-48.7-31.4c-13.7-0.4-20.8-1.1-20.8-6   c0-3,4.9-7.1,7.1-8.6c3,0.6,6,0.9,8.8,0.9c26,0,46.8-13.5,46.8-37.4c0-6.2-1.9-12-5.4-17h17.6L188.9,53.9z"/>
	<path class="st0" d="M254.1,51.1c-9.2,0.2-18.7,4.1-26,15.9V51.1l-32.9,6.4v97.1h35.2V84.8c4.5-5.8,11.6-8.6,19.1-8.6   c4.7,0,9.5,1.3,14,4.1l3.4-27.5C262.9,51.9,258.4,51.1,254.1,51.1z"/>
	<path class="st0" d="M368,22.1c0-9-7.3-16.3-16.3-16.3c-8.8,0-16.1,7.3-16.1,16.3c0,8.8,7.3,16.1,16.1,16.1   C360.7,38.2,368,30.9,368,22.1z M325,22.1c0-9-7.3-16.3-16.3-16.3c-8.8,0-16.1,7.3-16.1,16.3c0,8.8,7.3,16.1,16.1,16.1   C317.7,38.2,325,30.9,325,22.1z M348.8,57.5v64c-4.9,7.1-17.8,12-24.3,12c-6.7,0-12.7-2.8-12.7-13.1V51.1l-35.2,6.4v65.7   c0,23.8,17.2,34.1,34.6,34.1c12.7,0,30.1-6,39.9-16.5v13.7h32.9V51.1L348.8,57.5z"/>
	<path class="st0" d="M463.9,51.1c-18.3,0-30.7,12-36.1,18.3V51.1l-33.1,6.4v97.1H430V88.6c5.6-8.4,14-12.2,21.3-12.2   c8.4,0,15,5.6,15,16.8v61.4h35.2V85.2C501.5,61.4,483.3,51.1,463.9,51.1z"/>
	<path class="st0" d="M602.7,104.5c0.6-3.7,1.1-11.8,1.1-15.2c0-23.4-15.2-38.2-43-38.2c-33.3,0-50.7,27.1-50.7,51.1   c0,39.7,24.7,55.2,51.3,55.2c14.2,0,29-3.9,40.6-10.1l-2.6-22.1c-6.7,4.1-18.7,9-29.8,9c-9.7,0-25.6-6.2-25.6-29.6H602.7z    M544.9,87.8c0-12.9,6.9-18.9,12-18.9c6.7,0,13.5,5.6,12.5,18.9H544.9z"/>
</g>
<g>
	<path class="st1" d="M186.5,71.3h-17.6c3.4,4.9,5.4,10.7,5.4,17c0,23.8-20.8,37.4-46.8,37.4c-2.8,0-5.8-0.2-8.8-0.9   c-2.1,1.5-7.1,5.6-7.1,8.6c0,4.9,7.1,5.6,20.8,6c21.7,0.6,48.7,1.5,48.7,31.4c0,16.5-14.4,34.1-54.5,34.1   c-32.6,0-52.2-11.6-52.2-31.1c0-12.7,10.1-19.3,18.3-23.2c-3.2-2.1-6.4-6.2-6.4-13.5c0-8.6,4.9-13.1,15.9-19.3   c-11.4-3.7-21.3-14.8-21.3-29.2c0-23.6,21.5-37.4,46.6-37.4c7.7,0,14.2,1.1,20,2.8h41.4L186.5,71.3z M105.5,171.3   c0,14.6,14.6,16.1,21,16.1c11.6,0,20.8-6.2,20.8-14.2c0-11.8-18.7-13.1-26.8-13.1C107.9,160.2,105.5,164.2,105.5,171.3z    M139.3,88.4c0-14-4.1-19.1-11.8-19.1s-11.8,5.2-11.8,19.1c0,14.2,4.7,19.1,11.8,19.1C134.1,107.5,139.3,102.6,139.3,88.4z"/>
	<path class="st1" d="M267.2,52.8l-3.4,27.5c-4.5-2.8-9.2-4.1-14-4.1c-7.5,0-14.6,2.8-19.1,8.6v69.8h-35.2V57.5l32.9-6.4V67   c7.3-11.8,16.8-15.7,26-15.9C258.7,51.1,263.2,51.9,267.2,52.8z"/>
	<path class="st1" d="M383,51.1v103.5h-32.9v-13.7c-9.9,10.5-27.3,16.5-39.9,16.5c-17.4,0-34.6-10.3-34.6-34.1V57.5l35.2-6.4v69.4   c0,10.3,6,13.1,12.7,13.1c6.4,0,19.3-4.9,24.3-12v-64L383,51.1z M307.6,38.2c-8.8,0-16.1-7.3-16.1-16.1c0-9,7.3-16.3,16.1-16.3   c9,0,16.3,7.3,16.3,16.3C323.9,30.9,316.6,38.2,307.6,38.2z M350.6,38.2c-8.8,0-16.1-7.3-16.1-16.1c0-9,7.3-16.3,16.1-16.3   c9,0,16.3,7.3,16.3,16.3C366.9,30.9,359.6,38.2,350.6,38.2z"/>
	<path class="st1" d="M500.7,85.2v69.4h-35.2V93.2c0-11.2-6.7-16.8-15-16.8c-7.3,0-15.7,3.9-21.3,12.2v65.9h-35.2V57.5l33.1-6.4   v18.3c5.4-6.2,17.8-18.3,36.1-18.3C482.4,51.1,500.7,61.4,500.7,85.2z"/>
	<path class="st1" d="M543.2,104.5c0,23.4,15.9,29.6,25.6,29.6c11.2,0,23.2-4.9,29.9-9l2.6,22.1c-11.6,6.2-26.4,10.1-40.6,10.1   c-26.6,0-51.3-15.5-51.3-55.2c0-24.1,17.4-51.1,50.7-51.1c27.7,0,43,14.8,43,38.2c0,3.4-0.4,11.6-1.1,15.2H543.2z M568.5,87.8   c1.1-13.3-5.8-18.9-12.5-18.9c-5.2,0-12,6-12,18.9H568.5z"/>
</g>
<g>
	<path class="st1" d="M4.7,113.4h66.9v13.3h-3.4c1.5,1.4,4.5,5.5,4.5,11.8s-5.8,17.3-21.1,17.3c-16.4,0-21.4-13.6-21.4-20.7   c0-3.7,0.3-5.8,0.6-7.6H7.3L4.7,113.4z M61.6,132.5c0-1.8-0.6-4-1.4-5.1H41.4c-0.4,1-0.7,2.7-0.7,5c0,5.5,4.5,9.2,9.9,9.2   C56.3,141.6,61.6,139.2,61.6,132.5z"/>
	<path class="st1" d="M25,99.5c0,4.4-3.5,7.9-7.9,7.9s-7.9-3.5-7.9-7.9c0-4.3,3.5-7.9,7.9-7.9S25,95.2,25,99.5z M71.7,92.4v14.1   H32.9l-2.6-14.1H71.7z"/>
	<path class="st1" d="M51.7,75c9.4,0,11.8-6.4,11.8-10.2c0-4.5-2-9.3-3.6-11.9l8.8-1c2.5,4.6,4,10.6,4,16.2   c0,10.6-6.2,20.5-22.1,20.5c-9.6,0-20.4-7-20.4-20.3c0-11.1,5.9-17.2,15.3-17.2c1.4,0,4.6,0.2,6.1,0.4V75z M45,64.8   c-5.3-0.4-7.6,2.3-7.6,5c0,2.1,2.4,4.8,7.6,4.8V64.8z"/>
</g>
</svg>